{
	"asset":{
		"generator":"Khronos glTF Blender I/O v4.1.63",
		"version":"2.0"
	},
	"scene":0,
	"scenes":[
		{
			"name":"Scene",
			"nodes":[
				0,
				1
			]
		}
	],
	"nodes":[
		{
			"mesh":0,
			"name":"Cube",
			"translation":[
				4.503785610198975,
				3.6388256549835205,
				0.37314844131469727
			]
		},
		{
			"mesh":1,
			"name":"Cube.001",
			"translation":[
				14.506752967834473,
				8.400010108947754,
				6.41513729095459
			]
		}
	],
	"meshes":[
		{
			"name":"Cube",
			"primitives":[
				{
					"attributes":{
						"POSITION":0,
						"NORMAL":1,
						"TEXCOORD_0":2
					},
					"indices":3
				}
			]
		},
		{
			"name":"Cube.002",
			"primitives":[
				{
					"attributes":{
						"POSITION":4,
						"NORMAL":5,
						"TEXCOORD_0":6
					},
					"indices":7
				}
			]
		}
	],
	"accessors":[
		{
			"bufferView":0,
			"componentType":5126,
			"count":16,
			"max":[
				6.599606990814209,
				0,
				5.723165035247803
			],
			"min":[
				-6.599606990814209,
				0,
				-5.723165035247803
			],
			"type":"VEC3"
		},
		{
			"bufferView":1,
			"componentType":5126,
			"count":16,
			"type":"VEC3"
		},
		{
			"bufferView":2,
			"componentType":5126,
			"count":16,
			"type":"VEC2"
		},
		{
			"bufferView":3,
			"componentType":5123,
			"count":36,
			"type":"SCALAR"
		},
		{
			"bufferView":4,
			"componentType":5126,
			"count":271,
			"max":[
				1.0067102909088135,
				1.1043155193328857,
				1.1726418733596802
			],
			"min":[
				-2.237511396408081,
				-2.0625758171081543,
				-5.052578926086426
			],
			"type":"VEC3"
		},
		{
			"bufferView":5,
			"componentType":5126,
			"count":271,
			"type":"VEC3"
		},
		{
			"bufferView":6,
			"componentType":5126,
			"count":271,
			"type":"VEC2"
		},
		{
			"bufferView":7,
			"componentType":5123,
			"count":507,
			"type":"SCALAR"
		}
	],
	"bufferViews":[
		{
			"buffer":0,
			"byteLength":192,
			"byteOffset":0,
			"target":34962
		},
		{
			"buffer":0,
			"byteLength":192,
			"byteOffset":192,
			"target":34962
		},
		{
			"buffer":0,
			"byteLength":128,
			"byteOffset":384,
			"target":34962
		},
		{
			"buffer":0,
			"byteLength":72,
			"byteOffset":512,
			"target":34963
		},
		{
			"buffer":0,
			"byteLength":3252,
			"byteOffset":584,
			"target":34962
		},
		{
			"buffer":0,
			"byteLength":3252,
			"byteOffset":3836,
			"target":34962
		},
		{
			"buffer":0,
			"byteLength":2168,
			"byteOffset":7088,
			"target":34962
		},
		{
			"buffer":0,
			"byteLength":1014,
			"byteOffset":9256,
			"target":34963
		}
	],
	"buffers":[
		{
			"byteLength":10272,
			"uri":"building2.bin"
		}
	]
}
