{
	"asset":{
		"generator":"Khronos glTF Blender I/O v4.1.63",
		"version":"2.0"
	},
	"scene":0,
	"scenes":[
		{
			"name":"Scene",
			"nodes":[
				0,
				1
			]
		}
	],
	"nodes":[
		{
			"mesh":0,
			"name":"Cube",
			"translation":[
				5.362368583679199,
				3.208771228790283,
				1.955390453338623
			]
		},
		{
			"mesh":1,
			"name":"Cube.001",
			"translation":[
				8.668097496032715,
				4.572100639343262,
				0.5127592086791992
			]
		}
	],
	"meshes":[
		{
			"name":"Cube.001",
			"primitives":[
				{
					"attributes":{
						"POSITION":0,
						"NORMAL":1,
						"TEXCOORD_0":2
					},
					"indices":3
				}
			]
		},
		{
			"name":"Cube.003",
			"primitives":[
				{
					"attributes":{
						"POSITION":4,
						"NORMAL":5,
						"TEXCOORD_0":6
					},
					"indices":7
				}
			]
		}
	],
	"accessors":[
		{
			"bufferView":0,
			"componentType":5126,
			"count":16,
			"max":[
				3.9478254318237305,
				0,
				3.520571231842041
			],
			"min":[
				-3.9478254318237305,
				0,
				-3.520571231842041
			],
			"type":"VEC3"
		},
		{
			"bufferView":1,
			"componentType":5126,
			"count":16,
			"type":"VEC3"
		},
		{
			"bufferView":2,
			"componentType":5126,
			"count":16,
			"type":"VEC2"
		},
		{
			"bufferView":3,
			"componentType":5123,
			"count":36,
			"type":"SCALAR"
		},
		{
			"bufferView":4,
			"componentType":5126,
			"count":260,
			"max":[
				1.406816840171814,
				2.0600690841674805,
				4.617436408996582
			],
			"min":[
				-1.4484614133834839,
				-1,
				-1
			],
			"type":"VEC3"
		},
		{
			"bufferView":5,
			"componentType":5126,
			"count":260,
			"type":"VEC3"
		},
		{
			"bufferView":6,
			"componentType":5126,
			"count":260,
			"type":"VEC2"
		},
		{
			"bufferView":7,
			"componentType":5123,
			"count":468,
			"type":"SCALAR"
		}
	],
	"bufferViews":[
		{
			"buffer":0,
			"byteLength":192,
			"byteOffset":0,
			"target":34962
		},
		{
			"buffer":0,
			"byteLength":192,
			"byteOffset":192,
			"target":34962
		},
		{
			"buffer":0,
			"byteLength":128,
			"byteOffset":384,
			"target":34962
		},
		{
			"buffer":0,
			"byteLength":72,
			"byteOffset":512,
			"target":34963
		},
		{
			"buffer":0,
			"byteLength":3120,
			"byteOffset":584,
			"target":34962
		},
		{
			"buffer":0,
			"byteLength":3120,
			"byteOffset":3704,
			"target":34962
		},
		{
			"buffer":0,
			"byteLength":2080,
			"byteOffset":6824,
			"target":34962
		},
		{
			"buffer":0,
			"byteLength":936,
			"byteOffset":8904,
			"target":34963
		}
	],
	"buffers":[
		{
			"byteLength":9840,
			"uri":"building.bin"
		}
	]
}
