{
    "asset" : {
        "generator" : "Khronos glTF Blender I/O v3.3.27",
        "version" : "2.0"
    },
    "extensionsUsed" : [
        "KHR_materials_specular",
        "KHR_materials_ior"
    ],
    "scene" : 0,
    "scenes" : [
        {
            "name" : "Scene",
            "nodes" : [
                0,
                1,
                2,
                3,
                4,
                5
            ]
        }
    ],
    "nodes" : [
        {
            "mesh" : 0,
            "name" : "Box1578962223_001",
            "translation" : [
                364.1791687011719,
                14.562654495239258,
                86.8619384765625
            ]
        },
        {
            "mesh" : 1,
            "name" : "Box1578962223_002",
            "translation" : [
                367.2259521484375,
                14.012678146362305,
                60.872314453125
            ]
        },
        {
            "mesh" : 2,
            "name" : "Box1578962223_003",
            "translation" : [
                364.62451171875,
                14.002683639526367,
                86.58123779296875
            ]
        },
        {
            "mesh" : 3,
            "name" : "Box1578962223_004",
            "translation" : [
                364.0217590332031,
                11.987653732299805,
                84.74395751953125
            ]
        },
        {
            "mesh" : 4,
            "name" : "Box1578962223_005",
            "translation" : [
                364.8447570800781,
                14.487649917602539,
                82.6669921875
            ]
        },
        {
            "mesh" : 5,
            "name" : "Box1578962223_006",
            "translation" : [
                309.5191650390625,
                19.14253807067871,
                118.1986083984375
            ]
        }
    ],
    "materials" : [
        {
            "doubleSided" : true,
            "extensions" : {
                "KHR_materials_specular" : {
                    "specularColorFactor" : [
                        2.371357614441398,
                        2.371357614441398,
                        2.371357614441398
                    ]
                },
                "KHR_materials_ior" : {
                    "ior" : 1.4500000476837158
                }
            },
            "name" : "VRayMtl_1",
            "pbrMetallicRoughness" : {
                "baseColorFactor" : [
                    0.5,
                    0.5,
                    0.5,
                    1
                ],
                "metallicFactor" : 0,
                "roughnessFactor" : 0.5527864098548889
            }
        }
    ],
    "meshes" : [
        {
            "name" : "Mesh.056",
            "primitives" : [
                {
                    "attributes" : {
                        "POSITION" : 0,
                        "NORMAL" : 1,
                        "TEXCOORD_0" : 2
                    },
                    "indices" : 3,
                    "material" : 0
                }
            ]
        },
        {
            "name" : "Mesh.057",
            "primitives" : [
                {
                    "attributes" : {
                        "POSITION" : 4,
                        "NORMAL" : 5,
                        "TEXCOORD_0" : 6
                    },
                    "indices" : 7,
                    "material" : 0
                }
            ]
        },
        {
            "name" : "Mesh.058",
            "primitives" : [
                {
                    "attributes" : {
                        "POSITION" : 8,
                        "NORMAL" : 9,
                        "TEXCOORD_0" : 10
                    },
                    "indices" : 11,
                    "material" : 0
                }
            ]
        },
        {
            "name" : "Mesh.059",
            "primitives" : [
                {
                    "attributes" : {
                        "POSITION" : 12,
                        "NORMAL" : 13,
                        "TEXCOORD_0" : 14
                    },
                    "indices" : 15,
                    "material" : 0
                }
            ]
        },
        {
            "name" : "Mesh.060",
            "primitives" : [
                {
                    "attributes" : {
                        "POSITION" : 16,
                        "NORMAL" : 17,
                        "TEXCOORD_0" : 18
                    },
                    "indices" : 19,
                    "material" : 0
                }
            ]
        },
        {
            "name" : "Mesh.061",
            "primitives" : [
                {
                    "attributes" : {
                        "POSITION" : 20,
                        "NORMAL" : 21,
                        "TEXCOORD_0" : 22
                    },
                    "indices" : 23,
                    "material" : 0
                }
            ]
        }
    ],
    "accessors" : [
        {
            "bufferView" : 0,
            "componentType" : 5126,
            "count" : 30856,
            "max" : [
                66.85295104980469,
                9.489013671875,
                50.70196533203125
            ],
            "min" : [
                -66.85295104980469,
                -9.489013671875,
                -50.701995849609375
            ],
            "type" : "VEC3"
        },
        {
            "bufferView" : 1,
            "componentType" : 5126,
            "count" : 30856,
            "type" : "VEC3"
        },
        {
            "bufferView" : 2,
            "componentType" : 5126,
            "count" : 30856,
            "type" : "VEC2"
        },
        {
            "bufferView" : 3,
            "componentType" : 5123,
            "count" : 68064,
            "type" : "SCALAR"
        },
        {
            "bufferView" : 4,
            "componentType" : 5126,
            "count" : 9472,
            "max" : [
                63.66276550292969,
                8.938983917236328,
                24.387451171875
            ],
            "min" : [
                -63.662757873535156,
                -8.938983917236328,
                -24.387481689453125
            ],
            "type" : "VEC3"
        },
        {
            "bufferView" : 5,
            "componentType" : 5126,
            "count" : 9472,
            "type" : "VEC3"
        },
        {
            "bufferView" : 6,
            "componentType" : 5126,
            "count" : 9472,
            "type" : "VEC2"
        },
        {
            "bufferView" : 7,
            "componentType" : 5123,
            "count" : 18816,
            "type" : "SCALAR"
        },
        {
            "bufferView" : 8,
            "componentType" : 5126,
            "count" : 8624,
            "max" : [
                66.22564697265625,
                8.888984680175781,
                50.043365478515625
            ],
            "min" : [
                -66.2256851196289,
                -8.888988494873047,
                -50.0433349609375
            ],
            "type" : "VEC3"
        },
        {
            "bufferView" : 9,
            "componentType" : 5126,
            "count" : 8624,
            "type" : "VEC3"
        },
        {
            "bufferView" : 10,
            "componentType" : 5126,
            "count" : 8624,
            "type" : "VEC2"
        },
        {
            "bufferView" : 11,
            "componentType" : 5123,
            "count" : 19320,
            "type" : "SCALAR"
        },
        {
            "bufferView" : 12,
            "componentType" : 5126,
            "count" : 1736,
            "max" : [
                66.95820617675781,
                12.01400375366211,
                53.075439453125
            ],
            "min" : [
                -66.95820617675781,
                -12.01400375366211,
                -53.075408935546875
            ],
            "type" : "VEC3"
        },
        {
            "bufferView" : 13,
            "componentType" : 5126,
            "count" : 1736,
            "type" : "VEC3"
        },
        {
            "bufferView" : 14,
            "componentType" : 5126,
            "count" : 1736,
            "type" : "VEC2"
        },
        {
            "bufferView" : 15,
            "componentType" : 5123,
            "count" : 3336,
            "type" : "SCALAR"
        },
        {
            "bufferView" : 16,
            "componentType" : 5126,
            "count" : 1984,
            "max" : [
                65.9264907836914,
                9.514007568359375,
                50.998260498046875
            ],
            "min" : [
                -65.92646789550781,
                -9.514007568359375,
                -50.998291015625
            ],
            "type" : "VEC3"
        },
        {
            "bufferView" : 17,
            "componentType" : 5126,
            "count" : 1984,
            "type" : "VEC3"
        },
        {
            "bufferView" : 18,
            "componentType" : 5126,
            "count" : 1984,
            "type" : "VEC2"
        },
        {
            "bufferView" : 19,
            "componentType" : 5123,
            "count" : 3384,
            "type" : "SCALAR"
        },
        {
            "bufferView" : 20,
            "componentType" : 5126,
            "count" : 1360,
            "max" : [
                12.0579833984375,
                3.4801864624023438,
                19.2080078125
            ],
            "min" : [
                -12.0579833984375,
                -3.4801902770996094,
                -19.207977294921875
            ],
            "type" : "VEC3"
        },
        {
            "bufferView" : 21,
            "componentType" : 5126,
            "count" : 1360,
            "type" : "VEC3"
        },
        {
            "bufferView" : 22,
            "componentType" : 5126,
            "count" : 1360,
            "type" : "VEC2"
        },
        {
            "bufferView" : 23,
            "componentType" : 5123,
            "count" : 3720,
            "type" : "SCALAR"
        }
    ],
    "bufferViews" : [
        {
            "buffer" : 0,
            "byteLength" : 370272,
            "byteOffset" : 0,
            "target" : 34962
        },
        {
            "buffer" : 0,
            "byteLength" : 370272,
            "byteOffset" : 370272,
            "target" : 34962
        },
        {
            "buffer" : 0,
            "byteLength" : 246848,
            "byteOffset" : 740544,
            "target" : 34962
        },
        {
            "buffer" : 0,
            "byteLength" : 136128,
            "byteOffset" : 987392,
            "target" : 34963
        },
        {
            "buffer" : 0,
            "byteLength" : 113664,
            "byteOffset" : 1123520,
            "target" : 34962
        },
        {
            "buffer" : 0,
            "byteLength" : 113664,
            "byteOffset" : 1237184,
            "target" : 34962
        },
        {
            "buffer" : 0,
            "byteLength" : 75776,
            "byteOffset" : 1350848,
            "target" : 34962
        },
        {
            "buffer" : 0,
            "byteLength" : 37632,
            "byteOffset" : 1426624,
            "target" : 34963
        },
        {
            "buffer" : 0,
            "byteLength" : 103488,
            "byteOffset" : 1464256,
            "target" : 34962
        },
        {
            "buffer" : 0,
            "byteLength" : 103488,
            "byteOffset" : 1567744,
            "target" : 34962
        },
        {
            "buffer" : 0,
            "byteLength" : 68992,
            "byteOffset" : 1671232,
            "target" : 34962
        },
        {
            "buffer" : 0,
            "byteLength" : 38640,
            "byteOffset" : 1740224,
            "target" : 34963
        },
        {
            "buffer" : 0,
            "byteLength" : 20832,
            "byteOffset" : 1778864,
            "target" : 34962
        },
        {
            "buffer" : 0,
            "byteLength" : 20832,
            "byteOffset" : 1799696,
            "target" : 34962
        },
        {
            "buffer" : 0,
            "byteLength" : 13888,
            "byteOffset" : 1820528,
            "target" : 34962
        },
        {
            "buffer" : 0,
            "byteLength" : 6672,
            "byteOffset" : 1834416,
            "target" : 34963
        },
        {
            "buffer" : 0,
            "byteLength" : 23808,
            "byteOffset" : 1841088,
            "target" : 34962
        },
        {
            "buffer" : 0,
            "byteLength" : 23808,
            "byteOffset" : 1864896,
            "target" : 34962
        },
        {
            "buffer" : 0,
            "byteLength" : 15872,
            "byteOffset" : 1888704,
            "target" : 34962
        },
        {
            "buffer" : 0,
            "byteLength" : 6768,
            "byteOffset" : 1904576,
            "target" : 34963
        },
        {
            "buffer" : 0,
            "byteLength" : 16320,
            "byteOffset" : 1911344,
            "target" : 34962
        },
        {
            "buffer" : 0,
            "byteLength" : 16320,
            "byteOffset" : 1927664,
            "target" : 34962
        },
        {
            "buffer" : 0,
            "byteLength" : 10880,
            "byteOffset" : 1943984,
            "target" : 34962
        },
        {
            "buffer" : 0,
            "byteLength" : 7440,
            "byteOffset" : 1954864,
            "target" : 34963
        }
    ],
    "buffers" : [
        {
            "byteLength" : 1962304,
            "uri" : "data:application/octet-stream;base64,"
        }
    ]
}
